# xmcd
#
# Track frame offsets: 
#        150
#        19765
#        33185
#        53500
#        70205
#        91855
#        112710
#        134185
#        154650
#        178850
#        198500
#        211562
#
# Disc length: 2997 seconds
#
# Revision: 4
# Processed by: cddbd v1.5.2PL0 Copyright (c) Steve Scherf et al.
# Submitted via: ExactAudioCopy v0.99pb4
#
DISCID=970bb30c
DTITLE=Charlie Musselwhite - One Night In America
DYEAR=2002
DGENRE=Blues
TTITLE0=Trail Of Tears
TTITLE1=Cold Grey Light Of Dawn
TTITLE2=Blues Overtook Me
TTITLE3=In A Town This Size
TTITLE4=Walking Alone
TTITLE5=Rank Strangers To Me
TTITLE6=One Time One Night
TTITLE7=In Your Darkest Hour
TTITLE8=Big River
TTITLE9=Ain't It Time
TTITLE10=I'll Meet You Over There
TTITLE11=Ain't That Lovin You Baby
EXTD=
EXTT0=
EXTT1=
EXTT2=
EXTT3=
EXTT4=
EXTT5=
EXTT6=
EXTT7=
EXTT8=
EXTT9=
EXTT10=
EXTT11=
PLAYORDER=
